<?xml version="1.0" encoding="utf-8"?>
<!-- Generator: Adobe Illustrator 25.4.1, SVG Export Plug-In . SVG Version: 6.00 Build 0)  -->
<svg version="1.1" id="Camada_1" xmlns="http://www.w3.org/2000/svg" xmlns:xlink="http://www.w3.org/1999/xlink" x="0px" y="0px"
	 viewBox="0 0 1500 1500" style="enable-background:new 0 0 1500 1500;" xml:space="preserve">
<style type="text/css">
	.st0{fill:url(#SVGID_1_);}
	.st1{fill:#FFFFFF;}
</style>
<g>
	<linearGradient id="SVGID_1_" gradientUnits="userSpaceOnUse" x1="219.6721" y1="219.6687" x2="1280.3279" y2="1280.3243">
		<stop  offset="0" style="stop-color:#1677F1"/>
		<stop  offset="0.1756" style="stop-color:#186EE9"/>
		<stop  offset="0.4613" style="stop-color:#1E56D3"/>
		<stop  offset="0.8194" style="stop-color:#262EB0"/>
		<stop  offset="1" style="stop-color:#2B189C"/>
	</linearGradient>
	<path class="st0" d="M1500,750c0-414.2-335.8-750-750-750S0,335.8,0,750c0,374.3,274.3,684.6,632.8,740.9V966.8H442.4V750h190.4
		V584.8c0-188,112-291.8,283.3-291.8c82.1,0,167.9,14.6,167.9,14.6v184.6h-94.6c-93.2,0-122.2,57.8-122.2,117.1V750h208l-33.2,216.8
		H867.2v524.1C1225.7,1434.6,1500,1124.3,1500,750z"/>
	<path class="st1" d="M1041.9,966.8l33.2-216.8h-208V609.3c0-59.3,29.1-117.1,122.2-117.1h94.6V307.6c0,0-85.8-14.6-167.9-14.6
		c-171.3,0-283.3,103.8-283.3,291.8V750H442.4v216.8h190.4v524.1c38.2,6,77.3,9.1,117.2,9.1s79-3.1,117.2-9.1V966.8H1041.9z"/>
</g>
</svg>
