<?xml version="1.0" encoding="utf-8"?>
<!-- Generator: Adobe Illustrator 25.4.1, SVG Export Plug-In . SVG Version: 6.00 Build 0)  -->
<svg version="1.1" id="Camada_1" xmlns="http://www.w3.org/2000/svg" xmlns:xlink="http://www.w3.org/1999/xlink" x="0px" y="0px"
	 viewBox="0 0 1500 1500" style="enable-background:new 0 0 1500 1500;" xml:space="preserve">
<style type="text/css">
	.st0{fill:url(#SVGID_1_);}
	.st1{fill:#FFFFFF;}
	.st2{fill-rule:evenodd;clip-rule:evenodd;fill:#FFFFFF;}
</style>
<g>
	<linearGradient id="SVGID_1_" gradientUnits="userSpaceOnUse" x1="1280.33" y1="219.6707" x2="219.672" y2="1280.3286">
		<stop  offset="0" style="stop-color:#00FB73"/>
		<stop  offset="1" style="stop-color:#00B25B"/>
	</linearGradient>
	<circle class="st0" cx="750" cy="750" r="750"/>
	<path class="st1" d="M344.8,1174.4l62.5-233.3c-35.4-63.9-54-135.5-54-208.1c0-237.5,193.3-430.8,430.8-430.8
		c237.5,0,430.8,193.3,430.8,430.8c0,237.5-193.3,430.8-430.8,430.8c-71.3,0-141.7-18-204.8-52.2L344.8,1174.4z M591,1024.2
		l14.8,8.8c54.2,32.3,115.9,49.4,178.3,49.4c192.6,0,349.4-156.7,349.4-349.4S976.7,383.6,784.1,383.6
		c-192.6,0-349.4,156.7-349.4,349.4c0,63.6,17.7,126.2,51.1,181.1l9.1,14.9L460,1059.3L591,1024.2z"/>
	<path class="st2" d="M944.3,792.9c-17.7-10.6-40.8-22.4-61.7-13.9c-16,6.6-26.3,31.6-36.6,44.5c-5.3,6.6-11.7,7.6-19.9,4.3
		c-60.2-24-106.3-64.1-139.4-119.5c-5.6-8.6-4.6-15.4,2.2-23.4c10-11.8,22.6-25.2,25.3-41.1c2.7-15.9-4.7-34.5-11.3-48.7
		c-8.4-18.1-17.8-43.9-35.9-54.2c-16.7-9.4-38.6-4.1-53.5,8c-25.6,20.9-38,53.6-37.6,86c0.1,9.2,1.2,18.4,3.4,27.3
		c5.2,21.4,15.1,41.4,26.2,60.3c8.4,14.3,17.5,28.2,27.3,41.6c32.2,43.7,72.2,81.7,118.6,110.1c23.2,14.2,48.1,26.6,73.9,35.2
		c29,9.6,54.8,19.5,86.1,13.6c32.8-6.2,65-26.5,78-58.1c3.8-9.3,5.8-19.8,3.6-29.6C988.5,814.9,960.8,802.8,944.3,792.9z"/>
</g>
</svg>
