<?xml version="1.0" encoding="utf-8"?>
<!-- Generator: Adobe Illustrator 25.4.1, SVG Export Plug-In . SVG Version: 6.00 Build 0)  -->
<svg version="1.1" id="Camada_1" xmlns="http://www.w3.org/2000/svg" xmlns:xlink="http://www.w3.org/1999/xlink" x="0px" y="0px"
	 viewBox="0 0 2956.2 1172.2" style="enable-background:new 0 0 2956.2 1172.2;" xml:space="preserve">
<style type="text/css">
	.st0{fill:#FFFFFF;}
	.st1{fill:#522A14;}
	.st2{fill:#E7AA5E;}
</style>
<rect x="54.2" y="72.8" class="st0" width="640.8" height="640.8"/>
<rect x="1525.5" y="72.8" class="st0" width="640.8" height="640.8"/>
<rect x="2261.2" y="72.8" class="st0" width="640.8" height="640.8"/>
<rect x="789.9" y="72.8" class="st0" width="640.8" height="640.8"/>
<g>
	<path class="st1" d="M608.2,782.4c65,0,103.7,39.1,103.7,104.8V1038h-15.3v-78.5H520.2v78.5h-15.3V887.2
		C504.9,821.5,543.2,782.4,608.2,782.4z M608.2,797.4c-55.5,0-88,33.6-88,89.8v57h176.3v-57C696.6,831,663.7,797.4,608.2,797.4z"/>
	<path class="st1" d="M955.8,767.1V1038h-15.3v-49.7c-14.2,31.4-43.8,50.8-81.1,50.8c-54,0-92.7-40.2-92.7-96
		c0-56.2,38.7-96.4,92.4-96.4c37.6,0,67.2,19.4,81.4,50.8V767.1H955.8z M940.5,943.1c0-47.5-33.2-81.8-79.2-81.8
		S782,896,781.7,943.1c0.4,47.5,33.2,81.8,79.6,81.8C907.3,1024.9,940.5,990.6,940.5,943.1z"/>
	<path class="st1" d="M1015,847.8l68.6,173.8l68.3-173.8h16.1l-76.7,190.2h-15.7l-77-190.2H1015z"/>
	<path class="st1" d="M1367.3,942.7c0,56.2-39.4,95.7-93.8,95.7c-54,0-93.8-39.4-93.8-95.7c0-55.9,39.8-95.3,93.8-95.3
		C1327.9,847.4,1367.3,886.9,1367.3,942.7z M1194.6,942.7c0,48.2,33.2,81.4,78.9,81.4c46,0,78.9-33.2,78.9-81.4
		c0-47.5-32.9-80.7-78.9-80.7C1227.8,862,1194.6,895.3,1194.6,942.7z"/>
	<path class="st1" d="M1582.7,847.8v169.4c0,56.2-36.1,92-92,91.6c-30.3-0.7-54.8-11-77-31l8-11.3c19.7,18.6,41.3,27.4,68.6,28.1
		c47.1,0.4,77.8-29.9,77.8-77.4v-35.8c-13.1,30.3-41.6,48.9-77.8,48.9c-51.1,0-88-38.3-88-91.3c0-53.3,36.9-91.6,87.6-91.6
		c36.5,0,64.6,19,78.1,49.3v-48.9H1582.7z M1568.1,939.4c0-45.3-32.1-78.1-75.9-78.1s-75.6,32.9-75.6,78.1
		c0,44.9,31.4,77.8,75.6,77.8C1536,1017.2,1568.1,984.3,1568.1,939.4z"/>
	<path class="st1" d="M1821.9,847.8V1038h-15v-49.7c-14.2,31.4-43.8,50.8-81.1,50.8c-54,0-92.7-40.2-92.7-96
		c0-56.2,38.7-96,92.4-96.4c37.6,0,67.2,19.4,81.4,50.8v-49.7H1821.9z M1806.9,943.1c0-47.5-33.2-81.8-79.2-81.8
		c-46,0-79.2,34.7-79.6,81.8c0.4,47.5,33.2,81.8,79.6,81.8C1773.7,1024.9,1806.9,990.6,1806.9,943.1z"/>
	<path class="st1" d="M2066.9,767.1V1038h-15.3v-49.7c-14.2,31.4-43.8,50.8-81.1,50.8c-54,0-92.7-40.2-92.7-96
		c0-56.2,38.7-96.4,92.4-96.4c37.6,0,67.2,19.4,81.4,50.8V767.1H2066.9z M2051.5,943.1c0-47.5-33.2-81.8-79.2-81.8
		c-46,0-79.2,34.7-79.6,81.8c0.4,47.5,33.2,81.8,79.6,81.8C2018.3,1024.9,2051.5,990.6,2051.5,943.1z"/>
	<path class="st1" d="M2311.8,942.7c0,56.2-39.4,95.7-93.8,95.7c-54,0-93.8-39.4-93.8-95.7c0-55.9,39.8-95.3,93.8-95.3
		C2272.4,847.4,2311.8,886.9,2311.8,942.7z M2139.1,942.7c0,48.2,33.2,81.4,78.9,81.4c46,0,78.9-33.2,78.9-81.4
		c0-47.5-32.9-80.7-78.9-80.7C2172.4,862,2139.1,895.3,2139.1,942.7z"/>
	<path class="st1" d="M2411.9,861.3c-26.7,0-47.5,10.2-47.5,32.9c0,51.1,111,25.9,111,93.1c0,35.4-31.8,51.1-66.1,51.1
		c-26.7,0-52.2-9.5-69.7-26.3l6.9-11.7c16.4,15.3,39.4,24.1,63.5,24.1c26.7,0,49.7-10.6,50.8-34.7c1.5-53.7-111-29.2-111-94.6
		c0-33.2,28.8-47.8,62.4-47.8c21.2,0,39.4,5.8,54.4,15l-6.6,12.4C2446.9,866.4,2430.1,861.3,2411.9,861.3z"/>
</g>
<g>
	<path class="st1" d="M44.7,63.3v659.8h659.8V63.3H44.7z M600,154c-37.9,33.6-75.8,67.3-114.3,101.5c-9.7-9.2-18.8-17.8-28.7-27.2
		c48-25.5,95-50.5,142.1-75.5C599.4,153.3,599.7,153.6,600,154z M448.1,218.6c-18.1-18.4-35.3-36-52.9-53.9c21.2,3,42,6,63.9,9.1
		C455.4,188.9,451.9,203.4,448.1,218.6z M405.5,137.8c14.8-2.5,29.3-6.4,44.9-9.9c2.8,7.7,5.5,15.2,8.5,23.4c-22.3,0-43.5,0-64.8,0
		C394.6,143.5,397.3,139.2,405.5,137.8z M505.4,284.8c-22.5,119.2-44.8,238.4-67.1,357.6c-1.2,6.2-2.1,12.5-3.6,18.6
		c-0.4,1.8-2.7,4.3-4.2,4.4c-23.6,0.3-47.2,0.2-71.9,0.2c25.3-65.2,50.1-129,74.9-192.7c-0.4-0.2-0.9-0.4-1.3-0.6
		c-5.2,10.9-10.3,21.7-15.5,32.6c-24,51-48.2,102-71.9,153.2c-2.8,6.1-6.2,8-12.6,7.7c-12.3-0.5-24.6-0.1-38.2-0.1
		c11.4-23.3,22.3-45.4,33.2-67.4c-0.5-0.3-0.9-0.6-1.4-0.8c-9.1,12.3-18.2,24.7-27.3,37c-6.6,9-13,18.2-19.9,27
		c-1.5,2-4.5,4-6.9,4.1c-28.7,0.3-57.4,0.2-86.1,0.1c-0.6,0-1.2-0.4-2.8-1c31.2-39.4,62-78.4,92.8-117.4c-0.3-0.3-0.5-0.6-0.8-0.9
		c-1.5,1.3-3,2.5-4.4,3.9c-34.5,36.7-69.1,73.3-103.5,110.1c-3.5,3.7-6.8,5.4-11.9,5.3c-27.9-0.2-55.9-0.1-86.3-0.1
		c140.3-123.8,279-246.2,417.7-368.6c-0.4-0.6-0.8-1.1-1.3-1.7c-21.7,14.4-43.4,28.7-67.2,44.5c2.8-16.6-5.4-32.5,8.4-45.9
		c8.5-8.2,15.4-18,22-28.5C397,300.6,345.7,335.8,294,371.3c4.5,5.8,8.7,11.1,13.3,16.9c-3.4,3-6.7,5.7-10.4,8.9
		c-3.6-4.1-6.9-7.9-10.7-12.1c-13.4,11.9-26.7,23.6-39.9,35.4c-33.8,30.4-67.5,61-101.5,91.1c-3.9,3.4-9.4,5.7-14.5,6.9
		c-8.2,1.9-16.7,2.4-26.5,3.7c6.8-16.2,8.9-32.1,24.5-43.2c47.9-34.2,94.4-70.2,141.5-105.6c1.3-1,2.5-2.2,4.1-3.5
		c-3.2-4.2-6.2-8.2-9.7-12.7c3.7-3,7.1-5.6,10.7-8.6c4.7,5.6,9,10.8,15.5,18.5c1.4-2.7,2-5.2,3.6-6.9c39.4-43.1,79.1-86,118.3-129.2
		c4.6-5.1,7.6-5.1,13.2-1.6c25.1,15.9,50.4,31.3,75.8,46.7C505,278.4,506.2,280.3,505.4,284.8z M569.8,298c-9.9-0.5-19.9-0.5-29.9,0
		c-6.6,0.4-8.8-2.4-8.5-8.8c15.9,0,31.7,0,47.5,0C579.3,296.1,576.4,298.3,569.8,298z M669.2,297.9c-10.2-0.5-20.5-0.5-30.6,0
		c-6.3,0.3-8.2-2.4-8.2-8.6c15.7,0,31.3,0,47.4,0C678,295.7,675.7,298.2,669.2,297.9z M629.6,279.1c6.3-13.2,12.3-25.8,18.5-39
		c-29.1,0-57.5,0-87.1,0c6.2,13.2,12.2,25.7,18.5,39c-16.5,0-32,0-48.2,0c0.6-1.8,0.9-3.6,1.7-5.2c6.4-13.4,13.1-26.6,19.3-40.1
		c1.9-4.1,4.3-5.7,8.9-5.5c9.2,0.4,18.5-0.2,27.7,0.2c5.7,0.3,7.5-1.8,8-7.3c1.8-19.6,4.1-39.2,6.2-58.8c0.2-2.1,0.8-4.3,1.1-6.4
		c0.3-0.1,0.6-0.1,0.9-0.2c2.7,23.9,5.3,47.8,8.1,72.6c11.6,0,22.7,0.2,33.9-0.1c5-0.2,7.9,1.3,10,6.1c5.7,12.6,12,25,18.1,37.4
		c1,2.1,1.7,4.3,2.9,7.2C661.9,279.1,646.5,279.1,629.6,279.1z"/>
</g>
<g>
	<path class="st2" d="M780.4,63.3v659.8h659.8V63.3H780.4z M1168.5,707.6c-46.6,0-89.6-6.8-128.9-20.3
		c-39.4-13.5-73.5-33.2-102.2-59.1c-28.8-25.9-51.3-57.4-67.7-94.4c-16.4-37.1-24.6-78.9-24.6-125.5c0-42.5,7-81.4,21.1-116.4
		c14.1-35.1,33.6-65.5,58.6-91.4c25-25.9,54.8-46.9,89.3-63c34.5-16.1,72.4-26.7,113.8-31.9c-29.3,4-53.2,16.3-71.6,36.7
		c-18.4,20.4-32.8,44.4-43.1,72c-10.4,27.6-17.4,56.5-21.1,86.7c-3.7,30.2-5.6,57.1-5.6,80.6c0,19.6,1.6,41.3,4.7,65.1
		c3.2,23.9,8,47.9,14.7,72c6.6,24.1,15.2,47.4,25.9,69.9c10.6,22.4,23.4,42.4,38.4,59.9c14.9,17.5,32.2,31.6,51.7,42.3
		c19.5,10.6,41.7,16,66.4,16h4.3L1168.5,707.6z M1263.8,118.1c23.3,6.6,45.3,9.9,66,9.9c14.9,0,24.6-5,28.9-15.1
		c4.3-10.1,6.5-21.4,6.5-34.1v213c0-23.6-4.5-46-13.4-67.3c-8.9-21.3-21-40.4-36.2-57.4c-15.2-17-33.1-31-53.5-42.3
		c-18.6-10.2-38.2-16.7-59-19.5c-2.1-0.3-4.1-0.5-6.1-0.7c2.1,0.2,4.1,0.5,6.1,0.7C1222.5,107.9,1242.7,112.1,1263.8,118.1z
		 M1375.5,634.3c-16.7,13.2-33.2,24.7-49.6,34.5c-16.4,9.8-34.6,17.8-54.8,24.1c-4,1.7-9.2,3.5-15.5,5.2l15.5-5.2
		c20.1-6.9,38.8-17.1,56.1-30.6c17.2-13.5,33.3-27.5,48.3-41.8V634.3z"/>
</g>
<g>
	<path class="st2" d="M1516,63.3v659.8h659.8V63.3H1516z M1673,108.6c-13.2,9.2-25,20.1-35.4,32.8c-10.4,12.7-19.3,26.3-26.7,41
		c-7.5,14.7-14.1,28.9-19.8,42.7l15.5-133.7H1717C1700.9,93.7,1686.2,99.4,1673,108.6z M1731.7,695.1c9.8,0,18-1.9,24.6-5.6
		c6.6-3.7,11.9-8.8,16-15.1c4-6.3,6.8-13.5,8.2-21.6c1.4-8,2.2-16.4,2.2-25V91.4h126.8v504.5c0,9.8,0.1,20.4,0.4,31.9
		c0.3,11.5,2,22.3,5.2,32.3c3.2,10.1,8.2,18.4,15.1,25c6.9,6.6,17,9.9,30.2,9.9H1731.7z M2079.2,179.8
		c-8.1-15.2-17.5-29.2-28.5-41.8c-10.9-12.6-23.3-23.3-37.1-31.9c-13.8-8.6-29.9-13.5-48.3-14.7h119.9
		c5.7,42.6,10.9,87.1,15.5,133.7C2094.5,210.1,2087.3,195,2079.2,179.8z"/>
</g>
<g>
	<path class="st2" d="M2251.7,63.3v659.8h659.8V63.3H2251.7z M2478.5,695.1h-176.8c13.8,0,24.1-3.3,31-9.9
		c6.9-6.6,11.8-14.9,14.7-25c2.9-10.1,4.4-20.8,4.7-32.3c0.3-11.5,0.4-22.1,0.4-31.9V190.5c0-15.5-0.7-31.6-2.2-48.3
		c-1.4-16.7-7.6-30.5-18.5-41.4c-7.5-6.3-17.8-9.5-31-9.5h177.7V695.1z M2842.1,520c-13.5,37.4-33.1,69-58.6,94.9
		c-25.6,25.9-56.9,45.7-94,59.5c-37.1,13.8-79.2,20.7-126.4,20.7c25.3,0,46.6-4.9,63.8-14.7c17.2-9.8,31.5-22.9,42.7-39.2
		c11.2-16.4,20-35.1,26.3-56.1c6.3-21,10.9-42.7,13.8-65.1c2.9-22.4,4.6-44.7,5.2-66.8c0.6-22.1,0.9-42.1,0.9-59.9
		c0-23.6-0.9-49.4-2.6-77.6c-1.7-28.2-5.9-55.9-12.5-83.2c-6.6-27.3-16.5-52.5-29.8-75.5c-13.2-23-31.6-41.1-55.2-54.3
		c-9.8-4.6-19.8-7.6-30.2-9.1c-10.3-1.4-21-2.2-31.9-2.2h6c2.9,0,5.9,0,9.1,0c3.2,0,6.2,0.3,9.1,0.9c89.7,4,159.6,31.6,209.6,82.8
		c50,51.2,75,123.9,75,218.2C2862.3,440.4,2855.6,482.6,2842.1,520z"/>
</g>
</svg>
